<svg width="26" height="25" viewBox="0 0 26 25" fill="none" xmlns="http://www.w3.org/2000/svg">
<path d="M 19.5 12.6 V 10.7 C 19.5 9.2 19 7.7 18.1 6.5 C 17.2 5.4 15.9 4.5 14.5 4.2 C 15 3.6 15.2 2.7 14.9 2 C 14.5 1.2 13.8 0.7 13 0.7 C 12.2 0.7 11.5 1.2 11.1 2 C 10.8 2.7 11 3.6 11.5 4.2 C 10.1 4.5 8.8 5.3 7.9 6.5 C 7 7.6 6.5 9 6.5 10.5 V 12.6 C 6.5 15.5 5.3 18.3 3.3 20.4 C 3.2 20.5 3.1 20.7 3.2 20.8 C 3.3 21 3.4 21.1 3.6 21.1 H 10.2 C 10.4 22.4 11.6 23.5 13 23.5 C 14.4 23.5 15.6 22.4 15.8 21.1 H 22.4 C 22.6 21.1 22.7 21 22.8 20.8 C 22.9 20.7 22.8 20.5 22.7 20.4 C 20.7 18.3 19.5 15.5 19.5 12.6 L 19.5 12.6 Z M 13 1.6 C 13.5 1.6 13.9 1.9 14.1 2.3 C 14.3 2.8 14.2 3.3 13.9 3.6 C 13.5 4 13 4.1 12.5 3.9 C 12.1 3.7 11.8 3.3 11.8 2.8 C 11.8 2.1 12.3 1.6 13 1.6 Z M 13 22.7 C 12 22.7 11.2 22 11 21.1 H 15 C 14.8 22 14 22.7 13 22.7 H 13 Z M 4.5 20.2 C 6.3 18.1 7.3 15.4 7.3 12.6 V 10.5 C 7.3 8.9 7.9 7.4 9.1 6.4 C 10.2 5.3 11.7 4.7 13.3 4.8 C 14.8 4.9 16.1 5.6 17.2 6.6 C 18.2 7.7 18.7 9.2 18.7 10.7 V 12.6 C 18.7 15.4 19.7 18.1 21.5 20.2 H 4.5 Z" fill="#213f7d"/>
<path d="M 19.7 12.7 C 19.7 15.5 20.9 18.2 22.9 20.2 C 23 20.4 23.1 20.7 23 20.9 L 23 20.9 C 22.9 21.1 22.7 21.3 22.4 21.3 M 19.7 12.7 L 22.4 21.1 M 19.7 12.7 V 12.6 V 10.7 C 19.7 9.1 19.2 7.6 18.3 6.4 C 17.4 5.3 16.2 4.5 14.8 4.1 C 15.3 3.4 15.4 2.6 15 1.9 L 15 1.9 C 14.7 1.1 13.9 0.5 13 0.5 C 12.1 0.5 11.3 1.1 10.9 1.9 L 10.9 1.9 C 10.6 2.6 10.7 3.4 11.2 4 C 9.8 4.4 8.6 5.2 7.8 6.3 C 6.8 7.5 6.3 9 6.3 10.5 L 6.3 12.6 L 6.3 12.6 C 6.3 15.5 5.2 18.2 3.1 20.2 C 3 20.4 2.9 20.7 3 20.9 L 3 20.9 C 3.1 21.1 3.3 21.3 3.6 21.3 M 19.7 12.7 L 10 21.3 M 22.4 21.3 C 22.4 21.3 22.4 21.3 22.4 21.3 L 22.4 21.1 M 22.4 21.3 H 22.4 V 21.1 M 22.4 21.3 H 16 M 22.4 21.1 H 15.8 M 16 21.3 C 16 21.2 16 21.1 16 21.1 L 15.8 21.1 M 16 21.3 C 15.7 22.7 14.4 23.7 13 23.7 C 11.6 23.7 10.3 22.7 10 21.3 M 16 21.3 H 15.8 V 21.1 M 15.8 21.1 L 10 21.3 M 10 21.3 H 10.2 V 21.1 L 10 21.1 C 10 21.1 10 21.2 10 21.3 Z M 10 21.3 H 3.6 M 3.6 21.3 C 3.6 21.3 3.6 21.3 3.6 21.3 L 3.6 21.1 V 21.3 H 3.6 Z M 14.7 21.3 C 14.5 22 13.8 22.5 13 22.5 H 13 C 12.2 22.5 11.5 22 11.3 21.3 H 14.7 Z M 7.5 10.5 L 7.5 10.5 C 7.5 9 8.1 7.6 9.2 6.5 L 9.2 6.5 C 10.3 5.5 11.8 4.9 13.3 5 C 14.7 5.1 16 5.7 17 6.8 L 17 6.8 C 18 7.8 18.5 9.2 18.5 10.7 H 18.5 V 10.7 L 18.5 12.6 C 18.5 12.6 18.5 12.6 18.5 12.6 C 18.5 15.3 19.4 17.9 21.1 20 H 4.9 C 6.6 17.9 7.5 15.3 7.5 12.6 L 7.5 10.5 Z M 13 1.8 C 13.4 1.8 13.8 2 13.9 2.4 C 14.1 2.8 14 3.2 13.7 3.5 C 13.4 3.8 13 3.9 12.6 3.7 C 12.2 3.6 12 3.2 12 2.8 C 12 2.2 12.4 1.8 13 1.8 Z" stroke="#213f7d" stroke-width="0.4"/>
</svg>
